<?xml version="1.0" encoding="UTF-8" standalone="no"?>
<!-- Created with Inkscape (http://www.inkscape.org/) -->

<svg
   width="1080"
   height="1080"
   viewBox="0 0 285.75 285.75"
   version="1.1"
   id="svg5"
   inkscape:version="1.1 (c68e22c387, 2021-05-23)"
   sodipodi:docname="LOGOYLETRA.svg"
   xmlns:inkscape="http://www.inkscape.org/namespaces/inkscape"
   xmlns:sodipodi="http://sodipodi.sourceforge.net/DTD/sodipodi-0.dtd"
   xmlns:xlink="http://www.w3.org/1999/xlink"
   xmlns="http://www.w3.org/2000/svg"
   xmlns:svg="http://www.w3.org/2000/svg">
  <sodipodi:namedview
     id="namedview7"
     pagecolor="#ffffff"
     bordercolor="#666666"
     borderopacity="1.0"
     inkscape:pageshadow="2"
     inkscape:pageopacity="0.0"
     inkscape:pagecheckerboard="0"
     inkscape:document-units="px"
     showgrid="false"
     inkscape:zoom="0.35455254"
     inkscape:cx="1233.9497"
     inkscape:cy="38.076162"
     inkscape:window-width="1366"
     inkscape:window-height="684"
     inkscape:window-x="0"
     inkscape:window-y="48"
     inkscape:window-maximized="1"
     inkscape:current-layer="layer1" />
  <defs
     id="defs2">
    <linearGradient
       id="linearGradient17615"
       inkscape:swatch="solid">
      <stop
         style="stop-color:#000000;stop-opacity:1;"
         offset="0"
         id="stop17613" />
    </linearGradient>
    <linearGradient
       id="linearGradient7623"
       inkscape:swatch="solid">
      <stop
         style="stop-color:#000000;stop-opacity:1;"
         offset="0"
         id="stop7621" />
    </linearGradient>
    <linearGradient
       id="linearGradient11085"
       inkscape:swatch="solid">
      <stop
         style="stop-color:#000000;stop-opacity:1;"
         offset="0"
         id="stop11083" />
    </linearGradient>
    <linearGradient
       id="linearGradient2968"
       inkscape:swatch="solid">
      <stop
         style="stop-color:#004ce9;stop-opacity:1;"
         offset="0"
         id="stop2966" />
    </linearGradient>
    <linearGradient
       inkscape:collect="always"
       xlink:href="#linearGradient2968"
       id="linearGradient2970"
       x1="33.55432"
       y1="39.395901"
       x2="53.414018"
       y2="39.395901"
       gradientUnits="userSpaceOnUse"
       gradientTransform="matrix(3.2686326,0,0,3.3789387,-101.97504,-90.270405)" />
    <linearGradient
       inkscape:collect="always"
       xlink:href="#linearGradient2968"
       id="linearGradient10636"
       x1="-48.326496"
       y1="34.989578"
       x2="-26.335157"
       y2="34.989578"
       gradientUnits="userSpaceOnUse"
       gradientTransform="matrix(0.76154537,0,0,0.98653669,-2.6380956,-10.578388)" />
    <linearGradient
       inkscape:collect="always"
       xlink:href="#linearGradient2968"
       id="linearGradient10664"
       x1="-48.458744"
       y1="35.055725"
       x2="-26.202868"
       y2="35.055725"
       gradientUnits="userSpaceOnUse"
       gradientTransform="matrix(0.76154537,0,0,0.98653669,-2.6380956,-10.578388)" />
    <linearGradient
       inkscape:collect="always"
       xlink:href="#linearGradient2968"
       id="linearGradient10798"
       gradientUnits="userSpaceOnUse"
       gradientTransform="matrix(0.76154537,0,0,0.98653669,87.593597,-90.134561)"
       x1="-48.458744"
       y1="35.055725"
       x2="-26.202868"
       y2="35.055725" />
    <linearGradient
       inkscape:collect="always"
       xlink:href="#linearGradient2968"
       id="linearGradient10800"
       gradientUnits="userSpaceOnUse"
       gradientTransform="matrix(0.76154537,0,0,0.98653669,87.593597,-90.134561)"
       x1="-48.326496"
       y1="34.989578"
       x2="-26.335157"
       y2="34.989578" />
    <linearGradient
       inkscape:collect="always"
       xlink:href="#linearGradient2968"
       id="linearGradient10855"
       gradientUnits="userSpaceOnUse"
       gradientTransform="matrix(0.76154537,0,0,0.98653669,-6.2040784,-104.25473)"
       x1="-48.458744"
       y1="35.055725"
       x2="-26.202868"
       y2="35.055725" />
    <linearGradient
       inkscape:collect="always"
       xlink:href="#linearGradient2968"
       id="linearGradient10857"
       gradientUnits="userSpaceOnUse"
       gradientTransform="matrix(0.76154537,0,0,0.98653669,-6.2040784,-104.25473)"
       x1="-48.326496"
       y1="34.989578"
       x2="-26.335157"
       y2="34.989578" />
    <linearGradient
       inkscape:collect="always"
       xlink:href="#linearGradient2968"
       id="linearGradient11063"
       x1="17.590755"
       y1="41.295033"
       x2="59.472851"
       y2="41.295033"
       gradientUnits="userSpaceOnUse"
       gradientTransform="matrix(1.0611867,0,0,1.1934727,-1.4343657,-9.9935484)" />
    <linearGradient
       inkscape:collect="always"
       xlink:href="#linearGradient2968"
       id="linearGradient11087"
       x1="17.401476"
       y1="41.353916"
       x2="59.657909"
       y2="41.353916"
       gradientUnits="userSpaceOnUse"
       gradientTransform="matrix(1.0611867,0,0,1.1934727,-1.4343657,-9.9935484)" />
    <linearGradient
       inkscape:collect="always"
       xlink:href="#linearGradient2968"
       id="linearGradient907"
       gradientUnits="userSpaceOnUse"
       x1="4.3105502"
       y1="41.550102"
       x2="70.162186"
       y2="41.550102" />
    <linearGradient
       inkscape:collect="always"
       xlink:href="#linearGradient2968"
       id="linearGradient7645"
       gradientUnits="userSpaceOnUse"
       gradientTransform="matrix(0.78119509,0,0,0.78119509,-60.389863,116.56013)"
       x1="79.308861"
       y1="151.13445"
       x2="390.35541"
       y2="151.13445" />
    <linearGradient
       inkscape:collect="always"
       xlink:href="#linearGradient2968"
       id="linearGradient17617"
       x1="0.60481024"
       y1="141.35513"
       x2="288.24716"
       y2="141.35513"
       gradientUnits="userSpaceOnUse" />
  </defs>
  <g
     inkscape:groupmode="layer"
     id="layer5"
     inkscape:label="Capa 2"
     style="display:inline;opacity:0">
    <rect
       style="fill:url(#linearGradient17617);fill-opacity:1;stroke-width:0.264583"
       id="rect17611"
       width="287.64236"
       height="280.17435"
       x="0.60481024"
       y="1.2679551" />
  </g>
  <g
     inkscape:label="Capa 1"
     inkscape:groupmode="layer"
     id="layer1"
     style="display:inline">
    <g
       id="g893"
       transform="matrix(3.3317902,0,0,2.973487,11.004108,-10.14316)">
      <g
         inkscape:label="Capa 1"
         id="layer1-5"
         style="display:inline">
        <ellipse
           id="path31"
           style="fill:none;fill-opacity:0.276344;stroke:url(#linearGradient2970);stroke-width:3.32332"
           ry="32.515835"
           rx="32.457027"
           cy="42.845921"
           cx="40.158718" />
      </g>
      <g
         id="layer2"
         inkscape:label="Capa 2"
         style="display:none">
        <text
           xml:space="preserve"
           style="font-style:normal;font-weight:normal;font-size:98.5849px;line-height:1.25;font-family:sans-serif;display:inline;fill:url(#linearGradient907);fill-opacity:1;stroke:none;stroke-width:2.46465"
           x="3.5403557"
           y="77.484489"
           id="text4268-3"
           transform="matrix(1.071702,-2.1879266e-5,1.5419225e-4,0.9330952,0,0)"><tspan
             sodipodi:role="line"
             id="tspan4266-6"
             style="fill:url(#linearGradient907);fill-opacity:1;stroke-width:2.46465"
             x="3.5403557"
             y="77.484489">A</tspan></text>
        <circle
           id="path10956"
           style="fill:#000000;stroke:#000000;stroke-width:0.264583"
           cx="36.99482"
           cy="17.198011"
           r="0.029260308" />
        <circle
           id="path10958"
           style="fill:#000000;stroke:#000000;stroke-width:0.264583"
           cx="36.99482"
           cy="17.198011"
           r="0.029260308" />
      </g>
      <g
         id="layer4"
         inkscape:label="Capa 4">
        <path
           style="fill:url(#linearGradient11087);fill-opacity:1;stroke:url(#linearGradient11063);stroke-width:0.297759"
           id="path10977"
           d="m 22.817333,57.856742 c 0.196159,-1.307181 0.757467,-2.535733 1.323849,-3.681231 0.778105,-1.573699 1.598236,-2.953317 2.465498,-4.4748 0.543533,-0.989175 1.08693,-1.978444 1.630599,-2.967527 0.610115,-1.109961 1.245747,-2.202671 1.830751,-3.329606 0.653862,-1.259585 1.266841,-2.545564 1.884773,-3.82789 1.785294,-3.704813 3.463781,-7.457654 5.080092,-11.25826 0.979185,-2.360599 1.961093,-4.720787 2.836424,-7.133193 0.343893,-0.947769 0.611292,-1.917082 1.067956,-2.803493 -1.667076,1.174823 -3.370173,2.287351 -5.001232,3.52447 -0.07961,0.06039 0.208899,-0.01377 0.284145,0.05333 0.281599,0.251091 0.511428,0.568647 0.75112,0.869774 0.424524,0.533334 0.846147,1.070664 1.240598,1.632443 1.061603,1.511932 2.038478,3.155777 3.011917,4.736061 3.586387,5.981028 7.133214,11.994276 10.524463,18.118226 1.252366,2.36948 2.544445,4.717444 3.678106,7.163444 0.164981,0.355965 0.921397,1.958456 0.97446,2.579654 0.01244,0.145596 -0.120193,0.259427 -0.18029,0.389143 1.594639,-1.22219 3.415731,-2.136077 4.783911,-3.666567 0.27359,-0.306047 -0.733945,-0.279765 -1.075435,-0.481844 -0.561526,-0.332283 -1.083317,-0.743327 -1.624509,-1.115844 -6.798605,-4.67969 1.744132,1.227955 -6.099196,-4.325939 -1.238054,-0.876671 -2.491793,-1.72501 -3.737689,-2.587516 -4.687543,-2.532909 -9.615288,-4.510571 -14.723716,-5.652393 -1.549001,-0.346227 -3.125416,-0.5135 -4.688122,-0.77025 0,0 -2.913391,2.316973 -2.913391,2.316973 v 0 c 1.609114,0.20313 3.232015,0.297716 4.827343,0.609394 3.315443,0.647739 6.817317,1.780558 9.90602,3.288778 1.500871,0.732877 2.904888,1.694706 4.357333,2.542062 1.170059,0.908243 2.370993,1.768129 3.510179,2.724729 2.651276,2.226344 2.873039,2.628563 5.086864,5.030222 0.433409,0.470183 0.869434,0.937305 1.305111,1.404826 0.283728,0.304465 0.481873,1.053274 0.853108,0.911129 2.035009,-0.779201 3.792702,-2.277408 5.689055,-3.416115 -0.512052,-0.958662 -1.191904,-1.811495 -1.781067,-2.709395 -1.462024,-2.22817 -2.830946,-4.529918 -4.228869,-6.808782 -3.776419,-6.341766 0.314923,0.569193 -3.53557,-6.065063 -1.800186,-3.10166 -1.85162,-3.043839 -3.591774,-6.226717 -0.570242,-1.04302 -1.10663,-2.109034 -1.670014,-3.15676 -0.503744,-0.936819 -1.020854,-1.864468 -1.531282,-2.796704 -0.868636,-1.64449 -1.785531,-3.332699 -2.587167,-5.023869 -0.299907,-0.632705 -0.558416,-1.2893 -0.851125,-1.926254 -0.172921,-0.376289 -0.349875,-0.750858 -0.545467,-1.112833 -0.170639,-0.315788 -0.249584,-1.062578 -0.552102,-0.918376 -1.945227,0.927232 -3.593238,2.500489 -5.389857,3.750733 -0.471647,3.140114 -1.348387,6.170492 -2.406328,9.122183 -1.153689,3.044879 -1.473139,4.021813 -2.847295,7.06007 -2.287478,5.057611 -5.01378,9.842499 -7.978143,14.429304 -0.987862,1.587375 -1.959065,3.127798 -2.915122,4.737342 -0.824065,1.387336 -1.710617,2.812805 -2.033539,4.472172 0,0 5.584626,-3.229244 5.584626,-3.229244 z" />
      </g>
      <g
         id="layer3"
         inkscape:label="Capa 3"
         style="display:inline">
        <path
           style="fill:none;fill-opacity:0.276344"
           id="path10114"
           sodipodi:type="arc"
           sodipodi:cx="33.300037"
           sodipodi:cy="41.086472"
           sodipodi:rx="11.935908"
           sodipodi:ry="12.357289"
           sodipodi:start="0"
           sodipodi:end="0.019197226"
           sodipodi:arc-type="slice"
           d="m 45.235946,41.086472 a 11.935908,12.357289 0 0 1 -0.0022,0.237211 L 33.300037,41.086472 Z" />
        <path
           style="fill:none;fill-opacity:0.276344"
           id="path10116"
           sodipodi:type="arc"
           sodipodi:cx="41.790928"
           sodipodi:cy="47.485851"
           sodipodi:rx="3.4428179"
           sodipodi:ry="6.1621718"
           sodipodi:start="0"
           sodipodi:end="0.019197226"
           sodipodi:arc-type="slice"
           d="m 45.233746,47.485851 a 3.4428179,6.1621718 0 0 1 -6.35e-4,0.11829 l -3.442183,-0.11829 z" />
        <path
           style="fill:url(#linearGradient10664);fill-opacity:1;stroke:url(#linearGradient10636);stroke-width:0.264583"
           id="path10550"
           sodipodi:type="arc"
           sodipodi:cx="-31.067711"
           sodipodi:cy="20.766661"
           sodipodi:rx="8.3741961"
           sodipodi:ry="6.3469038"
           sodipodi:start="0"
           sodipodi:end="3.1262154"
           sodipodi:open="true"
           sodipodi:arc-type="arc"
           d="m -22.693515,20.766661 a 8.3741961,6.3469038 0 0 1 -8.30981,6.346716 8.3741961,6.3469038 0 0 1 -8.437592,-6.249122"
           transform="matrix(0.32127344,-0.94698647,0.98284013,0.18445941,0,0)" />
        <path
           style="display:inline;fill:url(#linearGradient10798);fill-opacity:1;stroke:url(#linearGradient10800);stroke-width:0.264583"
           id="path10550-9"
           sodipodi:type="arc"
           sodipodi:cx="59.163982"
           sodipodi:cy="-58.789513"
           sodipodi:rx="8.3741961"
           sodipodi:ry="6.3469038"
           sodipodi:start="0"
           sodipodi:end="3.1262154"
           sodipodi:open="true"
           sodipodi:arc-type="arc"
           transform="matrix(0.27055473,0.9627046,-0.91490601,0.40366693,0,0)"
           d="m 67.538178,-58.789513 a 8.3741961,6.3469038 0 0 1 -8.30981,6.346717 8.3741961,6.3469038 0 0 1 -8.437592,-6.249123" />
        <path
           style="display:inline;fill:url(#linearGradient10855);fill-opacity:1;stroke:url(#linearGradient10857);stroke-width:0.264583"
           id="path10550-9-6"
           sodipodi:type="arc"
           sodipodi:cx="-34.633694"
           sodipodi:cy="-72.909691"
           sodipodi:rx="8.3741961"
           sodipodi:ry="6.3469038"
           sodipodi:start="0"
           sodipodi:end="3.1262154"
           sodipodi:open="true"
           sodipodi:arc-type="arc"
           transform="matrix(-0.99863901,-0.05215478,-0.08925472,-0.99600883,0,0)"
           d="m -26.259498,-72.909691 a 8.3741961,6.3469038 0 0 1 -8.30981,6.346716 8.3741961,6.3469038 0 0 1 -8.437592,-6.249122" />
      </g>
    </g>
    <text
       xml:space="preserve"
       style="font-size:29.778px;line-height:1.25;font-family:Purisa;-inkscape-font-specification:Purisa;fill:url(#linearGradient7645);fill-opacity:1;stroke-width:0.744453"
       x="-0.45907101"
       y="245.13725"
       id="text6081"
       transform="matrix(0.96955265,0,0.08295771,1.0314035,0,0)"><tspan
         sodipodi:role="line"
         id="tspan6079"
         style="fill:url(#linearGradient7645);fill-opacity:1;stroke-width:0.744453"
         x="-0.45907101"
         y="245.13725">AXIOS AGENCY</tspan></text>
  </g>
</svg>
